# xmcd
#
# Track frame offsets: 
#        150
#        17907
#        30631
#        44471
#        57223
#        73511
#        88188
#        101757
#        115903
#        131914
#        141074
#        157605
#        175562
#        191919
#        203681
#        213186
#        227697
#        238974
#        254080
#        266894
#        280556
#        292854
#        308417
#        318895
#        330255
#
# Disc length: 4601 seconds
#
# Revision: 1
# Processed by: cddbd v1.5.2PL0 Copyright (c) Steve Scherf et al.
# Submitted via: ExactAudioCopy v0.95b4
#
DISCID=6211f719
DTITLE=The Temperence Seven - The Best Of The Temperence Seven
DYEAR=1961
DGENRE=Jazz
TTITLE0=You're driving me crazy
TTITLE1=Charley My Boy
TTITLE2=Pasadena
TTITLE3=Sugar
TTITLE4=Hard Hearted Hannah
TTITLE5=Chili Bom Bom
TTITLE6=The Charleston
TTITLE7=The Black Bottom
TTITLE8=Dinah
TTITLE9=Kaiser Drag (Tiger Rag)
TTITLE10=TCP That Certain Party
TTITLE11=My Blue Heaven
TTITLE12=Sahara
TTITLE13=Everybody Loves My Baby
TTITLE14=Runnin' Wild
TTITLE15=The Moochie
TTITLE16=The Shake
TTITLE17=Bye Bye Baby
TTITLE18=Ain't She Sweet
TTITLE19=Seven And Eleven
TTITLE20=China Boy
TTITLE21=Brown Eyes Why Are You Blue
TTITLE22=I Want To Be Happy
TTITLE23=Vo Do Do Dee O Blues
TTITLE24=Alexander's Rag Time Band
EXTD=
EXTT0=
EXTT1=
EXTT2=
EXTT3=
EXTT4=
EXTT5=
EXTT6=
EXTT7=
EXTT8=
EXTT9=
EXTT10=
EXTT11=
EXTT12=
EXTT13=
EXTT14=
EXTT15=
EXTT16=
EXTT17=
EXTT18=
EXTT19=
EXTT20=
EXTT21=
EXTT22=
EXTT23=
EXTT24=
PLAYORDER=
